<svg width="358" height="358" viewBox="0 0 358 358" fill="none" xmlns="http://www.w3.org/2000/svg">
<path d="M0 34C0 15.2223 15.2223 0 34 0H324C342.778 0 358 15.2223 358 34V324C358 342.778 342.778 358 324 358H34C15.2223 358 0 342.778 0 324V34Z" fill="#202028"/>
<path d="M236.306 298.816V281.436C236.306 279.154 235.856 276.894 234.983 274.785C234.11 272.677 232.83 270.761 231.216 269.146C229.601 267.533 227.685 266.253 225.578 265.379C223.469 264.506 221.209 264.056 218.926 264.056H149.404C126.357 264.056 104.255 254.901 87.958 238.605C71.6614 222.308 62.506 200.206 62.5057 177.16C62.5057 165.748 64.7534 154.448 69.1204 143.905C73.4875 133.362 79.8884 123.783 87.9577 115.714C96.027 107.645 105.606 101.244 116.149 96.877C126.692 92.51 137.992 90.2626 149.404 90.2627H218.921C221.203 90.2633 223.465 89.8143 225.574 88.9413C227.683 88.0681 229.6 86.7881 231.214 85.1742C232.828 83.5602 234.108 81.644 234.983 79.5351C235.856 77.4262 236.306 75.1658 236.306 72.8831V55.5034H149.408C133.432 55.5034 117.612 58.6502 102.852 64.764C88.0922 70.8778 74.681 79.839 63.3844 91.1357C52.0876 102.433 43.1266 115.844 37.013 130.604C30.8993 145.364 27.7528 161.184 27.7529 177.16C27.7529 209.424 40.57 240.368 63.3847 263.183C86.1994 285.998 117.143 298.816 149.408 298.816H236.306Z" fill="url(#paint0_linear_156_413)"/>
<path d="M97.2656 177.16C97.2656 190.987 102.759 204.248 112.536 214.025C122.313 223.803 135.575 229.296 149.402 229.296H236.307C245.526 229.296 254.365 232.958 260.884 239.477C267.402 245.995 271.065 254.836 271.065 264.055V298.814H305.824V264.056C305.824 245.62 298.5 227.938 285.463 214.9C272.425 201.863 254.743 194.539 236.307 194.539H149.405C144.795 194.539 140.375 192.708 137.115 189.449C133.856 186.19 132.025 181.769 132.025 177.16C132.025 172.55 133.856 168.13 137.115 164.87C140.375 161.611 144.795 159.78 149.405 159.78H236.307C254.743 159.78 272.425 152.456 285.463 139.419C298.5 126.382 305.824 108.7 305.824 90.2627V55.5034H271.059V90.2627C271.059 99.4801 267.398 108.32 260.881 114.838C254.364 121.357 245.524 125.019 236.307 125.021H149.405C142.557 125.02 135.777 126.369 129.451 128.989C123.125 131.609 117.378 135.449 112.536 140.291C107.694 145.133 103.854 150.881 101.234 157.206C98.6137 163.532 97.2654 170.313 97.2656 177.16Z" fill="url(#paint1_linear_156_413)"/>
<defs>
<linearGradient id="paint0_linear_156_413" x1="59.2444" y1="177.16" x2="326.818" y2="177.16" gradientUnits="userSpaceOnUse">
<stop stop-color="white"/>
<stop offset="1" stop-color="#202028"/>
</linearGradient>
<linearGradient id="paint1_linear_156_413" x1="59.0995" y1="177.159" x2="326.888" y2="177.159" gradientUnits="userSpaceOnUse">
<stop stop-color="white"/>
<stop offset="1" stop-color="#202028"/>
</linearGradient>
</defs>
</svg>
